Coordinates
version=1
nRows=52
nColumns=21
inDegrees=no
endheader
time	ra_wr_s_p	ra_wr_e_f	ra_cmc1_ad_ab	ra_cmc1_f_e	ra_mcp1_f_e	ra_ip1_f_e	ra_mcp2_e_f	ra_pip2_e_f	ra_dip2_e_f	ra_mcp3_e_f	ra_pip3_e_f	ra_dip3_e_f	ra_mcp4_e_f	ra_pip4_e_f	ra_dip4_e_f	ra_mcp5_e_f	ra_pip5_e_f	ra_dip5_e_f	ra_el_e_f	ra_wr_ad_ab
0.000000	0.000000	0.087300	0.436350	0.436350	-0.392700	-0.785400	0.785400	1.047200	0.785400	0.785400	1.047200	0.785400	0.785400	1.047200	0.785400	0.785400	1.047200	0.785400	2.268928	0.085000
0.001000	0.000000	0.087300	0.436352	0.436352	-0.392702	-0.785404	0.785404	1.047205	0.785404	0.785404	1.047205	0.785404	0.785404	1.047205	0.785404	0.785404	1.047205	0.785404	2.268915	0.085000
0.002000	0.000000	0.087300	0.436356	0.436356	-0.392705	-0.785411	0.785411	1.047214	0.785411	0.785411	1.047214	0.785411	0.785411	1.047214	0.785411	0.785411	1.047214	0.785411	2.268890	0.085000
0.003000	0.000000	0.087300	0.436362	0.436362	-0.392711	-0.785421	0.785421	1.047228	0.785421	0.785421	1.047228	0.785421	0.785421	1.047228	0.785421	0.785421	1.047228	0.785421	2.268851	0.085000
0.004000	0.000000	0.087300	0.436370	0.436370	-0.392718	-0.785436	0.785436	1.047248	0.785436	0.785436	1.047248	0.785436	0.785436	1.047248	0.785436	0.785436	1.047248	0.785436	2.268799	0.085000
0.005000	0.000000	0.087300	0.436380	0.436380	-0.392727	-0.785454	0.785454	1.047272	0.785454	0.785454	1.047272	0.785454	0.785454	1.047272	0.785454	0.785454	1.047272	0.785454	2.268733	0.085000
0.006000	0.000000	0.087300	0.436392	0.436392	-0.392738	-0.785476	0.785476	1.047301	0.785476	0.785476	1.047301	0.785476	0.785476	1.047301	0.785476	0.785476	1.047301	0.785476	2.268654	0.085000
0.007000	0.000000	0.087300	0.436406	0.436406	-0.392751	-0.785501	0.785501	1.047335	0.785501	0.785501	1.047335	0.785501	0.785501	1.047335	0.785501	0.785501	1.047335	0.785501	2.268561	0.085000
0.008000	0.000000	0.087300	0.436423	0.436423	-0.392766	-0.785531	0.785531	1.047375	0.785531	0.785531	1.047375	0.785531	0.785531	1.047375	0.785531	0.785531	1.047375	0.785531	2.268455	0.085000
0.009000	0.000000	0.087300	0.436441	0.436441	-0.392782	-0.785565	0.785565	1.047419	0.785565	0.785565	1.047419	0.785565	0.785565	1.047419	0.785565	0.785565	1.047419	0.785565	2.268334	0.085000
0.010000	0.000000	0.087300	0.436462	0.436462	-0.392801	-0.785602	0.785602	1.047469	0.785602	0.785602	1.047469	0.785602	0.785602	1.047469	0.785602	0.785602	1.047469	0.785602	2.268199	0.085000
0.011000	0.000000	0.087300	0.436485	0.436485	-0.392822	-0.785643	0.785643	1.047524	0.785643	0.785643	1.047524	0.785643	0.785643	1.047524	0.785643	0.785643	1.047524	0.785643	2.268049	0.085000
0.012000	0.000000	0.087300	0.436510	0.436510	-0.392844	-0.785689	0.785689	1.047585	0.785689	0.785689	1.047585	0.785689	0.785689	1.047585	0.785689	0.785689	1.047585	0.785689	2.267885	0.085000
0.013000	0.000000	0.087300	0.436538	0.436538	-0.392869	-0.785738	0.785738	1.047651	0.785738	0.785738	1.047651	0.785738	0.785738	1.047651	0.785738	0.785738	1.047651	0.785738	2.267706	0.085000
0.014000	0.000000	0.087300	0.436568	0.436568	-0.392896	-0.785792	0.785792	1.047723	0.785792	0.785792	1.047723	0.785792	0.785792	1.047723	0.785792	0.785792	1.047723	0.785792	2.267512	0.085000
0.015000	0.000000	0.087300	0.436600	0.436600	-0.392925	-0.785850	0.785850	1.047800	0.785850	0.785850	1.047800	0.785850	0.785850	1.047800	0.785850	0.785850	1.047800	0.785850	2.267303	0.085000
0.016000	0.000000	0.087300	0.436635	0.436635	-0.392956	-0.785912	0.785912	1.047883	0.785912	0.785912	1.047883	0.785912	0.785912	1.047883	0.785912	0.785912	1.047883	0.785912	2.267078	0.085000
0.017000	0.000000	0.087300	0.436672	0.436672	-0.392989	-0.785979	0.785979	1.047972	0.785979	0.785979	1.047972	0.785979	0.785979	1.047972	0.785979	0.785979	1.047972	0.785979	2.266838	0.085000
0.018000	0.000000	0.087300	0.436711	0.436711	-0.393025	-0.786050	0.786050	1.048066	0.786050	0.786050	1.048066	0.786050	0.786050	1.048066	0.786050	0.786050	1.048066	0.786050	2.266582	0.085000
0.019000	0.000000	0.087300	0.436753	0.436753	-0.393062	-0.786125	0.786125	1.048166	0.786125	0.786125	1.048166	0.786125	0.786125	1.048166	0.786125	0.786125	1.048166	0.786125	2.266310	0.085000
0.020000	0.000000	0.087300	0.436797	0.436797	-0.393102	-0.786205	0.786205	1.048273	0.786205	0.786205	1.048273	0.786205	0.786205	1.048273	0.786205	0.786205	1.048273	0.786205	2.266022	0.085000
0.021000	0.000000	0.087300	0.436844	0.436844	-0.393144	-0.786289	0.786289	1.048385	0.786289	0.786289	1.048385	0.786289	0.786289	1.048385	0.786289	0.786289	1.048385	0.786289	2.265718	0.085000
0.022000	0.000000	0.087300	0.436893	0.436893	-0.393189	-0.786378	0.786378	1.048504	0.786378	0.786378	1.048504	0.786378	0.786378	1.048504	0.786378	0.786378	1.048504	0.786378	2.265397	0.085000
0.023000	0.000000	0.087300	0.436945	0.436945	-0.393236	-0.786471	0.786471	1.048628	0.786471	0.786471	1.048628	0.786471	0.786471	1.048628	0.786471	0.786471	1.048628	0.786471	2.265059	0.085000
0.024000	0.000000	0.087300	0.437000	0.437000	-0.393285	-0.786570	0.786570	1.048759	0.786570	0.786570	1.048759	0.786570	0.786570	1.048759	0.786570	0.786570	1.048759	0.786570	2.264705	0.085000
0.025000	0.000000	0.087300	0.437057	0.437057	-0.393336	-0.786672	0.786672	1.048897	0.786672	0.786672	1.048897	0.786672	0.786672	1.048897	0.786672	0.786672	1.048897	0.786672	2.264333	0.085000
0.026000	0.000000	0.087300	0.437117	0.437117	-0.393390	-0.786780	0.786780	1.049040	0.786780	0.786780	1.049040	0.786780	0.786780	1.049040	0.786780	0.786780	1.049040	0.786780	2.263944	0.085000
0.027000	0.000000	0.087300	0.437179	0.437179	-0.393446	-0.786893	0.786893	1.049191	0.786893	0.786893	1.049191	0.786893	0.786893	1.049191	0.786893	0.786893	1.049191	0.786893	2.263537	0.085000
0.028000	0.000000	0.087300	0.437245	0.437245	-0.393505	-0.787011	0.787011	1.049347	0.787011	0.787011	1.049347	0.787011	0.787011	1.049347	0.787011	0.787011	1.049347	0.787011	2.263112	0.085000
0.029000	0.000000	0.087300	0.437313	0.437313	-0.393567	-0.787133	0.787133	1.049511	0.787133	0.787133	1.049511	0.787133	0.787133	1.049511	0.787133	0.787133	1.049511	0.787133	2.262669	0.085000
0.030000	0.000000	0.087300	0.437384	0.437384	-0.393630	-0.787261	0.787261	1.049681	0.787261	0.787261	1.049681	0.787261	0.787261	1.049681	0.787261	0.787261	1.049681	0.787261	2.262208	0.085000
0.031000	0.000000	0.087300	0.437458	0.437458	-0.393697	-0.787394	0.787394	1.049858	0.787394	0.787394	1.049858	0.787394	0.787394	1.049858	0.787394	0.787394	1.049858	0.787394	2.261729	0.085000
0.032000	0.000000	0.087300	0.437534	0.437534	-0.393766	-0.787532	0.787532	1.050042	0.787532	0.787532	1.050042	0.787532	0.787532	1.050042	0.787532	0.787532	1.050042	0.787532	2.261231	0.085000
0.033000	0.000000	0.087300	0.437614	0.437614	-0.393837	-0.787675	0.787675	1.050233	0.787675	0.787675	1.050233	0.787675	0.787675	1.050233	0.787675	0.787675	1.050233	0.787675	2.260714	0.085000
0.034000	0.000000	0.087300	0.437696	0.437696	-0.393912	-0.787823	0.787823	1.050431	0.787823	0.787823	1.050431	0.787823	0.787823	1.050431	0.787823	0.787823	1.050431	0.787823	2.260177	0.085000
0.035000	0.000000	0.087300	0.437782	0.437782	-0.393989	-0.787977	0.787977	1.050636	0.787977	0.787977	1.050636	0.787977	0.787977	1.050636	0.787977	0.787977	1.050636	0.787977	2.259621	0.085000
0.036000	0.000000	0.087300	0.437870	0.437870	-0.394068	-0.788137	0.788137	1.050849	0.788137	0.788137	1.050849	0.788137	0.788137	1.050849	0.788137	0.788137	1.050849	0.788137	2.259046	0.085000
0.037000	0.000000	0.087300	0.437962	0.437962	-0.394151	-0.788301	0.788301	1.051069	0.788301	0.788301	1.051069	0.788301	0.788301	1.051069	0.788301	0.788301	1.051069	0.788301	2.258451	0.085000
0.038000	0.000000	0.087300	0.438057	0.438057	-0.394236	-0.788472	0.788472	1.051296	0.788472	0.788472	1.051296	0.788472	0.788472	1.051296	0.788472	0.788472	1.051296	0.788472	2.257835	0.085000
0.039000	0.000000	0.087300	0.438155	0.438155	-0.394324	-0.788648	0.788648	1.051531	0.788648	0.788648	1.051531	0.788648	0.788648	1.051531	0.788648	0.788648	1.051531	0.788648	2.257199	0.085000
0.040000	0.000000	0.087300	0.438256	0.438256	-0.394415	-0.788830	0.788830	1.051773	0.788830	0.788830	1.051773	0.788830	0.788830	1.051773	0.788830	0.788830	1.051773	0.788830	2.256543	0.085000
0.041000	0.000000	0.087300	0.438360	0.438360	-0.394509	-0.789017	0.789017	1.052023	0.789017	0.789017	1.052023	0.789017	0.789017	1.052023	0.789017	0.789017	1.052023	0.789017	2.255865	0.085000
0.042000	0.000000	0.087300	0.438467	0.438467	-0.394605	-0.789211	0.789211	1.052281	0.789211	0.789211	1.052281	0.789211	0.789211	1.052281	0.789211	0.789211	1.052281	0.789211	2.255167	0.085000
0.043000	0.000000	0.087300	0.438578	0.438578	-0.394705	-0.789410	0.789410	1.052547	0.789410	0.789410	1.052547	0.789410	0.789410	1.052547	0.789410	0.789410	1.052547	0.789410	2.254447	0.085000
0.044000	0.000000	0.087300	0.438692	0.438692	-0.394808	-0.789616	0.789616	1.052821	0.789616	0.789616	1.052821	0.789616	0.789616	1.052821	0.789616	0.789616	1.052821	0.789616	2.253705	0.085000
0.045000	0.000000	0.087300	0.438810	0.438810	-0.394914	-0.789827	0.789827	1.053103	0.789827	0.789827	1.053103	0.789827	0.789827	1.053103	0.789827	0.789827	1.053103	0.789827	2.252941	0.085000
0.046000	0.000000	0.087300	0.438931	0.438931	-0.395022	-0.790045	0.790045	1.053393	0.790045	0.790045	1.053393	0.790045	0.790045	1.053393	0.790045	0.790045	1.053393	0.790045	2.252155	0.085000
0.047000	0.000000	0.087300	0.439055	0.439055	-0.395134	-0.790269	0.790269	1.053691	0.790269	0.790269	1.053691	0.790269	0.790269	1.053691	0.790269	0.790269	1.053691	0.790269	2.251347	0.085000
0.048000	0.000000	0.087300	0.439183	0.439183	-0.395249	-0.790499	0.790499	1.053998	0.790499	0.790499	1.053998	0.790499	0.790499	1.053998	0.790499	0.790499	1.053998	0.790499	2.250516	0.085000
0.049000	0.000000	0.087300	0.439314	0.439314	-0.395368	-0.790735	0.790735	1.054314	0.790735	0.790735	1.054314	0.790735	0.790735	1.054314	0.790735	0.790735	1.054314	0.790735	2.249662	0.085000
0.050000	0.000000	0.087300	0.439449	0.439449	-0.395489	-0.790978	0.790978	1.054638	0.790978	0.790978	1.054638	0.790978	0.790978	1.054638	0.790978	0.790978	1.054638	0.790978	2.248784	0.085000
0.051000	0.000000	0.087300	0.439588	0.439588	-0.395614	-0.791228	0.791228	1.054970	0.791228	0.791228	1.054970	0.791228	0.791228	1.054970	0.791228	0.791228	1.054970	0.791228	2.247883	0.085000
